<?xml version="1.0" encoding="UTF-8" standalone="no"?>
<!-- Created with Inkscape (http://www.inkscape.org/) -->

<svg
   xmlns:dc="http://purl.org/dc/elements/1.1/"
   xmlns:cc="http://creativecommons.org/ns#"
   xmlns:rdf="http://www.w3.org/1999/02/22-rdf-syntax-ns#"
   xmlns:svg="http://www.w3.org/2000/svg"
   xmlns="http://www.w3.org/2000/svg"
   xmlns:sodipodi="http://sodipodi.sourceforge.net/DTD/sodipodi-0.dtd"
   xmlns:inkscape="http://www.inkscape.org/namespaces/inkscape"
   width="744.09448819"
   height="1052.3622047"
   id="svg2"
   version="1.1"
   inkscape:version="0.48.2 r9819"
   sodipodi:docname="simpler.svg">
  <defs
     id="defs4" />
  <sodipodi:namedview
     id="base"
     pagecolor="#ffffff"
     bordercolor="#666666"
     borderopacity="1.0"
     inkscape:pageopacity="0.0"
     inkscape:pageshadow="2"
     inkscape:zoom="0.43476563"
     inkscape:cx="273.71088"
     inkscape:cy="484.52062"
     inkscape:document-units="px"
     inkscape:current-layer="layer1"
     showgrid="false"
     inkscape:window-width="1364"
     inkscape:window-height="766"
     inkscape:window-x="0"
     inkscape:window-y="0"
     inkscape:window-maximized="0" />
  <metadata
     id="metadata7">
    <rdf:RDF>
      <cc:Work
         rdf:about="">
        <dc:format>image/svg+xml</dc:format>
        <dc:type
           rdf:resource="http://purl.org/dc/dcmitype/StillImage" />
      </cc:Work>
    </rdf:RDF>
  </metadata>
  <g
     inkscape:label="Layer 1"
     inkscape:groupmode="layer"
     id="layer1">
    <path
       style="fill:none;stroke:#000000;stroke-width:1px;stroke-linecap:butt;stroke-linejoin:miter;stroke-opacity:1"
       d="m 108.10422,74.823998 c -2.30009,3.066787 -4.50551,6.206912 -6.90027,9.200359 -18.929535,23.661923 10.64839,42.253683 25.30099,27.601083 20.34395,-20.343951 10.46417,-36.801442 -18.40072,-36.801442 z"
       id="path3017"
       inkscape:connector-curvature="0" />
    <path
       style="fill:none;stroke:#000000;stroke-width:1px;stroke-linecap:butt;stroke-linejoin:miter;stroke-opacity:1"
       d="m 276.01078,81.724268 c -1.80179,5.136183 -12.63986,4.363545 -4.95203,0.212062 8.15282,2.05964 -8.93985,6.685926 -10.64779,10.626933 -8.26451,6.864939 -12.81419,22.568827 -2.02002,29.284177 13.78285,7.24994 32.95494,3.28905 42.55223,-9.06313 -5.23219,-7.73078 2.06957,-21.625261 -9.57598,-25.704629 -4.89094,-2.413858 -10.47717,-2.91308 -15.35641,-5.355413 z"
       id="path3019"
       inkscape:connector-curvature="0" />
    <path
       style="fill:none;stroke:#000000;stroke-width:1.16822183px;stroke-linecap:butt;stroke-linejoin:miter;stroke-opacity:1"
       d="m 98.73598,162.22741 c 42.99638,4.79875 85.86859,4.60018 128.70023,4.60018 8.92203,0 78.47574,0.75839 78.47574,2.30009 0,9.99309 -7.0525,64.96998 -31.3903,82.80324 -15.30362,11.21356 -46.226,11.29053 -65.91962,16.10062 -7.33374,1.79124 -27.94937,7.01088 -34.52933,4.60018 -21.49171,-7.8739 -41.78008,-15.226 -53.36351,-32.20125 -3.96827,-5.81542 -0.79272,-9.78123 -6.27806,-13.80054 -2.09268,-1.5334 2.09268,-7.66697 0,-9.20036 -11.48991,-8.41911 -18.777161,-41.6523 -15.69515,-55.20216 z"
       id="path3047"
       inkscape:connector-curvature="0" />
  </g>
</svg>
