<?xml version="1.0" encoding="UTF-8" standalone="no"?>
<!-- Created with Inkscape (http://www.inkscape.org/) -->

<svg
   xmlns:dc="http://purl.org/dc/elements/1.1/"
   xmlns:cc="http://creativecommons.org/ns#"
   xmlns:rdf="http://www.w3.org/1999/02/22-rdf-syntax-ns#"
   xmlns:svg="http://www.w3.org/2000/svg"
   xmlns="http://www.w3.org/2000/svg"
   xmlns:sodipodi="http://sodipodi.sourceforge.net/DTD/sodipodi-0.dtd"
   xmlns:inkscape="http://www.inkscape.org/namespaces/inkscape"
   width="744.09448819"
   height="1052.3622047"
   id="svg3345"
   version="1.1"
   inkscape:version="0.48.2 r9819"
   sodipodi:docname="substak.svg"
   inkscape:export-filename="/home/substack/media/vector/substack.png"
   inkscape:export-xdpi="60.476192"
   inkscape:export-ydpi="60.476192">
  <defs
     id="defs3347" />
  <sodipodi:namedview
     id="base"
     pagecolor="#ffffff"
     bordercolor="#666666"
     borderopacity="1.0"
     inkscape:pageopacity="0.0"
     inkscape:pageshadow="2"
     inkscape:zoom="0.43476563"
     inkscape:cx="427.04509"
     inkscape:cy="513.49436"
     inkscape:document-units="px"
     inkscape:current-layer="layer1"
     showgrid="false"
     inkscape:window-width="1364"
     inkscape:window-height="766"
     inkscape:window-x="0"
     inkscape:window-y="0"
     inkscape:window-maximized="0" />
  <metadata
     id="metadata3350">
    <rdf:RDF>
      <cc:Work
         rdf:about="">
        <dc:format>image/svg+xml</dc:format>
        <dc:type
           rdf:resource="http://purl.org/dc/dcmitype/StillImage" />
        <dc:title></dc:title>
      </cc:Work>
    </rdf:RDF>
  </metadata>
  <g
     inkscape:label="Layer 1"
     inkscape:groupmode="layer"
     id="layer1">
    <path
       inkscape:connector-curvature="0"
       style="fill:#ffffff;stroke:#ffffff;stroke-width:1.60635114px;stroke-linecap:butt;stroke-linejoin:miter;stroke-opacity:0"
       d="m 260.89311,302.16609 c -3.61547,-0.12866 -9.55328,1.11994 -10.49149,2.05814 -0.97234,0.97233 -2.41614,1.56276 -3.41349,2.56012 -0.18936,0.18931 -0.0617,0.66407 -0.25099,0.85338 -1.04095,1.04095 -6.58463,5.97281 -6.7266,8.98553 -0.54871,0.25953 -1.0897,0.45178 -1.60635,0.45178 -2.62823,0 -1.31565,18.76374 0.80318,20.88257 0.48728,0.48727 0.99307,3.82597 0.80317,4.01587 -3.57206,3.57206 -3.73099,9.35322 -7.63017,13.2524 -1.24073,1.24073 -1.13684,4.75112 -2.40952,6.02382 -3.44338,3.44337 -6.58799,10.76642 -8.83493,15.26033 -2.05385,4.1077 -3.22832,9.65371 -6.42541,12.85081 -0.50076,0.50077 -0.5268,2.13316 -1.20476,2.81112 -1.48491,1.48491 -2.26852,4.53702 -3.2127,6.4254 -1.01896,2.03791 -2.81393,6.02663 -4.41747,7.63017 -0.46436,0.46436 -0.48989,2.18454 -0.80318,2.81111 -2.19909,4.39818 -4.06185,10.88885 -7.63016,14.45716 -0.80318,0.80318 -0.40159,2.81112 -1.20477,3.61429 -0.54871,0.54872 -4.39125,7.2548 -3.61429,8.03176 0.63822,0.63822 0.80405,1.60722 1.60635,2.40953 1.80986,1.80985 7.25456,3.65836 6.42541,4.01587 1.2015,3.00377 -1.40352,3.61839 -0.40159,5.62223 0.92688,1.85376 3.29201,2.08725 4.41747,3.2127 4.84708,4.84709 11.90839,4.23719 18.47303,6.42541 2.51889,0.83962 13.35967,5.76939 16.06352,4.41746 0.18508,-0.0925 2.51694,-11.45929 4.01587,-14.45716 0.87244,-1.74489 1.74079,-3.74872 3.21271,-5.22064 0.37958,-0.37964 0.0657,-2.07357 0.40158,-2.40952 2.12307,-2.12307 3.88092,-12.31426 4.81906,-13.2524 1.79746,-1.79746 2.56539,-8.58921 3.61429,-9.63811 2.9259,-2.92592 4.14237,-13.7805 6.82699,-16.4651 0.5354,-0.53546 -0.13381,-2.27567 0.40159,-2.81111 1.34456,-1.34456 2.37322,-3.94326 3.2127,-5.62223 1.38784,-2.77569 2.98454,-14.22899 4.01588,-15.26034 0.41765,-0.41705 0.0855,-2.98199 0.40158,-3.61429 1.2606,-2.52121 2.97135,-7.79041 4.81906,-9.6381 l 6.4254,-6.42541 c 0.94187,-0.94186 2.98544,-0.97749 4.01588,-2.00794 1.99772,-1.99773 4.89672,-3.69195 6.82699,-5.62222 0.87461,-0.87463 2.66545,-1.05912 3.61429,-2.00794 3.27571,-3.27571 2.40723,-19.27853 -1.20476,-22.89051 -1.51336,-1.51337 -5.19105,-2.18333 -7.12818,-3.61429 -0.34852,-1.10311 -0.48382,-2.44157 -1.30516,-3.2629 -1.50891,-1.50891 -3.78095,-2.3754 -5.12025,-3.71468 -0.63192,-0.63194 -6.78442,-1.36301 -6.82699,-1.40556 -0.0795,-0.0795 0.0112,-3.15067 -1.10437,-4.26687 -0.34501,-0.34501 -3.27642,-2.03981 -3.71468,-2.25893 -0.77873,-0.38937 -3.07266,0.59183 -3.66449,0 -0.86542,-0.86542 -1.54698,-1.79798 -2.30913,-2.56012 -0.41751,-0.41751 -1.35498,-0.6097 -2.56012,-0.65259 z"
       id="path5285"
       inkscape:export-filename="/home/substack/media/avatars/substack_vector_robot.png"
       inkscape:export-xdpi="80.470001"
       inkscape:export-ydpi="80.470001" />
    <path
       style="fill:#ff0000;fill-opacity:1;stroke:#ffffff;stroke-width:1.60635114px;stroke-linecap:butt;stroke-linejoin:miter;stroke-opacity:0"
       d="m 388.98642,626.26181 c -0.18933,0.37863 -0.18933,1.32518 -0.56794,1.13587 -0.37862,-0.18931 0.56794,-1.55918 0.56794,-1.13587 0,0.65727 -0.56794,1.4821 -0.56794,2.27173 0,0.50766 -1.73387,3.94544 -1.41982,4.25948 0.54381,0.54382 12.79461,2.25555 13.63034,1.41983 0.32438,-0.32439 0.29669,-1.43256 0.56792,-1.7038 2.20168,-2.20168 3.38074,-9.8851 5.11138,-13.34636 1.82399,-3.64798 3.45964,-7.20327 5.39535,-11.07467 1.43771,-2.87542 1.86638,-6.85639 3.40758,-9.93878 0.53843,-1.07687 -0.0997,-2.82418 0.28397,-3.97551 1.1852,-3.5556 0.77698,-8.01027 1.98775,-11.6426 0.28397,-0.85189 -0.28396,-1.98774 0,-2.83964 0.7159,-2.14767 0.0295,-4.37747 0.56794,-6.53121 1.52052,-6.08213 -0.40082,-11.84299 -5.67932,-14.48224 -0.21387,-0.10698 -2.40933,-0.14634 -2.55569,0 -1.70917,1.70917 -4.11203,7.94013 -5.39533,10.50673 -0.66371,1.32739 -2.29768,5.98921 -3.40758,7.09914 -0.65491,0.65489 0.0614,3.06223 -0.56795,3.69154 -1.24079,1.24081 -1.40311,4.22608 -2.27171,5.96327 -0.74778,1.49554 -0.29488,9.09781 -1.13587,9.9388 -1.21863,1.21862 -5.20386,17.03137 -6.24723,20.16154 -0.63003,1.89003 -0.53975,3.91914 -1.41984,5.67931 -0.63796,1.27595 0.4776,2.63953 -0.28395,4.54344 z"
       id="path5409"
       inkscape:connector-curvature="0"
       inkscape:export-filename="/home/substack/media/avatars/substack_vector_robot.png"
       inkscape:export-xdpi="80.470001"
       inkscape:export-ydpi="80.470001" />
    <path
       style="fill:#ffffff;stroke:#ffffff;stroke-width:1.60635114px;stroke-linecap:butt;stroke-linejoin:miter;stroke-opacity:0"
       d="m 288.20107,478.09115 c 4.41921,-7.08639 4.52148,-15.94532 9.31302,-22.90914 2.48104,-9.10756 5.14186,-18.12695 8.95624,-26.7959 2.74813,-7.89614 4.20146,-16.15462 7.81773,-23.80551 0.10312,-12.74721 11.94145,-4.32756 19.35441,-4.57257 7.87746,3.33334 15.85283,6.22398 24.53703,7.15031 15.6105,4.02078 30.88727,8.85264 46.34149,13.44895 9.46371,3.06929 26.02413,9.3859 33.33097,10.39978 -1.21326,6.23171 -4.33701,13.57555 -5.1072,20.49023 -6.10965,16.89793 -14.465,41.06171 -19.31358,58.3575 -2.43067,-0.39897 -7.88175,-2.06233 -21.84535,-4.93052 -7.79605,-2.14772 -23.63411,-4.55214 -33.90766,-8.52205 -13.72177,-3.32362 -31.76847,-6.86903 -39.77528,-9.62066 -3.90923,-1.13675 -10.84526,-3.69136 -19.04008,-5.65668 -2.06634,-0.33959 -8.58113,-2.94541 -10.66174,-3.03374 z"
       id="path4970"
       inkscape:connector-curvature="0"
       sodipodi:nodetypes="ccccccccccccccc"
       inkscape:export-filename="/home/substack/media/avatars/substack_vector_robot.png"
       inkscape:export-xdpi="80.470001"
       inkscape:export-ydpi="80.470001" />
    <path
       inkscape:connector-curvature="0"
       style="fill:#ff0000;stroke:#ffffff;stroke-width:1.60635114px;stroke-linecap:butt;stroke-linejoin:miter;stroke-opacity:0"
       d="m 333.98208,401.96066 c -0.35179,1.1e-4 -0.64583,0.0936 -0.80317,0.25099 -0.44784,0.44782 0,3.71377 0,4.41747 0,2.36453 -8.58455,-2.73552 -10.84287,-1.60635 -2.39109,1.19554 -1.28481,10.92289 -2.81112,12.44922 -0.47015,0.47014 -2.11262,11.75074 -3.2127,12.85081 -4.57274,4.57273 -4.92385,14.66677 -8.03176,20.88256 -0.43774,0.87549 -0.111,2.92208 -0.80317,3.61429 -0.60418,0.60418 -6.44234,14.73214 -7.07799,16.81649 -0.27065,0.32564 -1.50171,2.5686 -0.95377,3.66449 3.07954,6.15905 29.25145,9.0035 37.74925,13.25239 1.33666,0.66834 6.58698,-0.24003 7.63019,0.80318 1.41367,1.41367 9.19308,0.58066 11.24446,1.60635 4.90361,2.45181 27.7885,5.29959 29.71749,7.22858 0.3968,0.3968 9.90377,1.1368 11.64605,2.00794 0.75119,0.3756 11.52035,1.73205 11.64604,1.60635 0.9725,-0.97248 2.07602,-12.91889 2.40953,-13.2524 0.73404,-0.73403 2.89648,-7.22858 3.61429,-7.22858 0.59838,0 -0.40159,1.96391 -0.40159,3.21271 0,0.41906 -0.14489,1.53024 -0.35139,2.81111 1.53916,-4.91632 4.53084,-9.96526 7.17838,-15.26034 0.29549,-0.59099 0.74768,-1.78962 1.20477,-2.86131 -0.13654,-1.50086 -0.42853,-3.10861 0,-3.96568 1.28219,-2.56438 9.02917,-26.31055 7.22858,-28.11114 -1.4397,-1.43969 -6.07868,-0.0548 -7.63017,-1.60635 -0.514,-0.514 2.29499,-4.532 1.60635,-5.22064 -0.87122,-0.87123 -9.0493,-2.91831 -10.44128,-3.61429 -0.6948,-0.34741 -9.1004,-4.9552 -10.0397,-4.01588 -1.53663,1.53663 -2.43089,7.22858 -2.81111,7.22858 -0.59321,0 -5.42698,-3.41904 -6.02382,-4.01588 -0.14698,-0.14698 -14.48349,-5.03302 -16.4651,-6.02382 -2.46205,-1.23104 -5.94285,-0.3611 -8.43334,-1.60635 -3.9437,-1.97186 -9.53935,-1.75776 -13.2524,-3.61429 -1.19699,-0.59849 -2.45746,0.17681 -3.61429,-0.40159 -1.48316,-0.74158 2.32068,-4.9079 0.80318,-6.4254 -0.0545,-0.0545 -14.56387,-4.06923 -16.8667,-5.22064 -0.15887,-0.0795 -1.75575,-0.65297 -2.81112,-0.65258 z"
       id="path4985"
       inkscape:export-filename="/home/substack/media/avatars/substack_vector_robot.png"
       inkscape:export-xdpi="80.470001"
       inkscape:export-ydpi="80.470001" />
    <path
       style="fill:#ffffff;stroke:#ffffff;stroke-width:1.60635114px;stroke-linecap:butt;stroke-linejoin:miter;stroke-opacity:0"
       d="m 321.93445,436.32602 c 0,0 3.82853,1.419 8.83493,3.2127 1.4723,0.52749 7.20554,1.9849 10.44128,2.81112 2.3931,1.84348 6.95941,1.61708 9.23654,3.2127 0.94196,-3.75308 2.51286,-7.2743 3.2127,-10.44128 1.02744,-4.64941 3.34627,-9.37098 4.01588,-14.45716 0.31858,-2.41988 -9.49788,-3.29984 -11.64605,-4.01588 -2.84358,-0.94786 -17.12855,-7.76992 -19.27623,-5.62223 -1.52332,1.52332 -5.4103,22.34378 -4.81905,25.30003 z"
       id="path5013"
       inkscape:connector-curvature="0"
       sodipodi:nodetypes="csccssssc"
       inkscape:export-filename="/home/substack/media/avatars/substack_vector_robot.png"
       inkscape:export-xdpi="80.470001"
       inkscape:export-ydpi="80.470001" />
    <path
       style="fill:#ff0000;stroke:#ffffff;stroke-width:1.60635114px;stroke-linecap:butt;stroke-linejoin:miter;stroke-opacity:0"
       d="m 330.76938,419.86092 c -0.26773,0.53544 -0.61387,1.03841 -0.80318,1.60635 -0.53642,1.60929 -1.13696,6.75919 -2.00794,7.63017 -0.14778,0.14778 -1.25338,2.76249 -1.20476,2.81111 0.46853,0.46853 2.34259,-0.46852 2.81112,0 2.05113,2.05114 13.07788,3.03819 13.25241,3.21271 0.11228,0.11228 0.78001,0.80317 1.20476,0.80317 0.93703,0 0,-1.87408 0,-2.81111 0,-1.81251 0.80318,-3.06362 0.80318,-4.81906 0,-0.81535 1.59817,-6.03199 1.20476,-6.4254 -0.32511,-0.32511 -2.70193,0 -3.2127,0 -3.38259,0 -6.65993,-2.40953 -9.23654,-2.40953 -0.37861,0 -0.45164,-0.94379 -0.80317,-0.80317 -0.72472,0.28988 -1.33862,0.80317 -2.00794,1.20476 z"
       id="path5015"
       inkscape:connector-curvature="0"
       inkscape:export-filename="/home/substack/media/avatars/substack_vector_robot.png"
       inkscape:export-xdpi="80.470001"
       inkscape:export-ydpi="80.470001" />
    <path
       style="fill:#ffffff;stroke:#ffffff;stroke-width:1.60635114px;stroke-linecap:butt;stroke-linejoin:miter;stroke-opacity:0"
       d="m 395.82662,432.71173 c -0.40159,0.53544 -0.66932,2.00794 -1.20477,1.60635 -0.53544,-0.40159 1.20477,-2.27567 1.20477,-1.60635 0,1.23416 -1.6615,2.17339 -2.00794,3.2127 -0.44745,1.34235 -0.176,3.1631 -0.80318,4.41747 -0.73839,1.4768 -3.46095,14.36224 -3.2127,14.85874 0.5496,1.09918 2.73235,-0.0394 3.61429,0.40159 3.99724,1.99862 9.09877,3.07496 11.64604,5.62223 0.2008,0.20079 1.00397,-0.20079 1.20477,0 0.59287,0.59287 9.28627,5.57248 10.03969,4.81905 1.83582,-1.83581 6.42541,-17.5684 6.42541,-21.68574 0,-0.66816 1.72777,-3.49286 1.20476,-4.01587 -1.29655,-1.29655 -10.74382,-2.15921 -12.85081,-3.21271 -4.52694,-2.26346 -10.07616,-6.49113 -15.26033,-4.41746 z"
       id="path5017"
       inkscape:connector-curvature="0"
       inkscape:export-filename="/home/substack/media/avatars/substack_vector_robot.png"
       inkscape:export-xdpi="80.470001"
       inkscape:export-ydpi="80.470001" />
    <path
       style="fill:#ff0000;stroke:#ffffff;stroke-width:1.60635114px;stroke-linecap:butt;stroke-linejoin:miter;stroke-opacity:0"
       d="m 399.44091,440.74348 c -1.17075,1.16051 -0.60295,2.81226 -1.20477,4.01588 -0.38615,0.7723 -2.15048,5.88127 -1.60635,6.42541 1.55392,1.55392 6.26687,1.8494 8.03176,3.61429 0.32053,0.32053 1.58662,-0.21066 2.00794,0 0.85062,0.42531 2.31827,0.31033 2.81111,0.80317 0.0627,0.0626 0.0243,1.58202 0.80318,0.80318 0.3417,-0.34171 3.47004,-11.7903 3.2127,-12.04764 -0.59994,-0.59994 -2.94412,-1.07047 -4.01588,-1.60635 -3.5825,-1.79124 -6.01913,-5.2244 -10.03969,-2.00794 z"
       id="path5019"
       inkscape:connector-curvature="0"
       inkscape:export-filename="/home/substack/media/avatars/substack_vector_robot.png"
       inkscape:export-xdpi="80.470001"
       inkscape:export-ydpi="80.470001" />
    <path
       inkscape:connector-curvature="0"
       style="fill:#ffffff;fill-opacity:1;stroke:#ffffff;stroke-width:1.60635114px;stroke-linecap:butt;stroke-linejoin:miter;stroke-opacity:0"
       d="m 333.17891,452.81171 c -1.03631,1.60735 -7.47685,20.38604 -6.02382,23.29209 0.96856,1.93713 6.10643,1.44686 8.03175,2.40953 3.92644,1.96322 8.09405,3.64542 12.04765,5.62223 0.50702,0.25351 2.02401,-0.38553 2.40953,0 1.61064,1.61064 9.41365,1.09254 12.04763,2.40952 1.68656,0.84329 3.51828,1.15677 5.22065,2.00794 1.06033,0.53016 6.52181,0.0964 7.22858,0.80318 0.69315,0.69316 3.34371,1.60635 4.81905,1.60635 1.35041,0 11.48165,3.77868 11.64604,3.61429 1.95803,-1.95801 3.2603,-12.49682 4.41747,-13.65398 0.96991,-0.96992 2.81111,-4.71485 2.81111,-6.02382 0,-0.85493 1.72007,-3.90215 0.80318,-4.81905 -2.6853,-2.68531 -12.56279,-2.12151 -16.06351,-5.62223 -0.96497,-0.96497 -3.20054,-0.38943 -4.01588,-1.20477 -1.19021,-1.19021 -5.33228,0.28995 -6.4254,-0.80317 -0.45359,-0.45359 -13.36279,-5.22064 -14.85875,-5.22064 -9.38858,0 -16.39155,-2.87672 -24.09528,-4.41747 z m 6.27481,4.26687 c 0.52029,-0.0797 1.20317,0.0745 2.15853,0.55218 0.65109,0.32555 1.92614,-0.0818 2.40954,0.40159 0.43309,0.43309 -2.56393,7.87737 -1.60637,8.83493 0.24252,0.24251 2.02871,0 2.40955,0 0.58738,0 2.3014,1.31291 2.40952,1.20477 0.13542,-0.13542 1.75788,-7.63017 2.40953,-7.63017 0.19088,0 1.72069,1.06114 2.00794,1.20476 0.33441,0.16721 2.81111,0.23066 2.81111,0.40159 0,1.2534 -4.14687,5.08964 -2.81111,6.4254 0.61867,0.61867 3.22255,-0.39667 4.01588,0 1.03057,0.51529 0.82153,1.20477 2.00794,1.20477 2.11977,0 -0.95,-9.30993 4.01587,-6.82699 0.74717,0.37358 2.6527,0.64475 3.21271,1.20476 1.37442,1.37442 -3.3162,7.12508 -2.40953,8.03175 0.24251,0.24252 2.02869,0 2.40953,0 0.45005,0 2.61613,1.39975 2.81111,1.20477 1.11412,-1.11412 -0.29036,-4.52869 0.80318,-5.62223 0.30813,-0.30813 2.87055,-2.75168 4.01587,-1.60635 2.01127,2.01126 -3.02442,5.00733 -1.20476,6.82699 0.46853,0.46852 2.34259,-0.46852 2.81112,0 0.35781,0.35781 1.90969,1.50811 1.60635,1.20476 -0.20038,-0.20037 0,-1.69349 0,-2.00794 0,-1.2109 0.21737,-3.02848 0.80317,-3.61429 1.08731,-1.0873 3.80246,0.99135 4.01588,1.20477 0.0887,0.0887 1.60635,-0.0679 1.60635,0 0,0.28402 -3.93794,6.4254 -3.2127,6.4254 0.88834,0 2.68593,-0.92836 3.61429,0 0.0814,0.0814 1.01663,0.99131 1.20476,0.80318 1.71122,-1.71122 0.0737,-8.59729 5.22064,-6.02382 0.58198,0.29099 1.1951,-0.42093 1.60635,0.40159 0.36537,0.73071 -3.35104,4.68071 -2.00793,6.02382 0.11742,0.11742 5.92791,-0.30568 4.01587,1.60635 -0.28286,0.28286 -1.78496,4.81905 -2.00794,4.81905 -0.36758,0 -3.26015,-2.36206 -4.01587,-1.60635 -1.20477,1.20476 1.20476,6.02382 0,7.22858 -1.00648,1.00647 -4.85478,-1.27623 -5.22064,-2.00794 -0.42032,-0.84064 2.03931,-5.18927 1.60635,-5.62223 -0.28526,-0.28525 -4.52996,-0.51408 -5.62223,-1.60635 -0.68715,-0.68715 -2.57191,5.62223 -3.2127,5.62223 -0.4507,0 -0.69305,-0.69305 -0.80318,-0.80318 -0.46852,-0.46852 -1.941,0.067 -2.40953,-0.40158 -0.5604,-0.56041 2.56681,-4.26019 2.00794,-4.81906 -0.73074,-0.73074 -4.65528,-1.20476 -6.02381,-1.20476 -1.49663,0 0.69346,4.41746 -0.80318,4.41746 -0.37862,0 -0.46452,-0.63385 -0.80318,-0.80317 -0.60875,-0.30437 -1.43472,-0.22997 -2.00793,-0.80318 -0.53718,-0.53718 1.67937,-3.94285 0.80317,-4.81905 -0.43243,-0.43243 -1.5685,-0.40159 -2.40953,-0.40159 -0.81426,0 -1.83376,-0.97735 -2.40952,-0.40159 -1.62683,1.62684 1.83567,7.14245 -4.41747,4.01588 -0.81753,-0.40877 1.98741,-4.0364 1.20477,-4.81905 -0.60287,-0.60286 -3.5459,-1.20476 -4.81906,-1.20476 -1.26129,0 -2.53029,-0.71533 -3.01191,-1.05417 0.0556,0.36955 -0.60238,1.31698 -0.60238,1.85734 0,0.7037 0.44784,3.96963 0,4.41747 -0.41588,0.4159 -1.35401,-0.27541 -1.60635,-0.40159 -0.79723,-0.39862 -2.21207,-0.20414 -2.81111,-0.80318 -0.0252,-0.0252 2.59237,-5.43937 1.20476,-6.82699 -0.70741,-0.7074 -4.41143,-1.2108 -5.22066,-0.40159 -0.20747,0.20748 0.049,6.47447 -1.60635,4.81906 -0.6871,-0.6871 -2.29114,-1.08638 -2.81111,-1.60635 -0.83307,-0.83307 3.06459,-5.77034 1.60635,-7.22858 -0.79513,-0.79513 -4.01588,1.57893 -4.01588,-1.20477 0,-0.38343 0.0207,-0.74753 0.0501,-1.05417 8.8e-4,-0.0186 -0.001,-0.0321 0,-0.0501 0.48312,-4.76351 4.36004,-0.49476 4.76885,-0.90358 1.15234,-1.15233 0.005,-5.82898 2.25893,-6.17441 z"
       id="path5021"
       inkscape:export-filename="/home/substack/media/avatars/substack_vector_robot.png"
       inkscape:export-xdpi="80.470001"
       inkscape:export-ydpi="80.470001" />
    <path
       style="fill:#ffffff;stroke:#ffffff;stroke-width:1.60635114px;stroke-linecap:butt;stroke-linejoin:miter;stroke-opacity:0"
       d="m 415.30253,508.8702 c 2.44633,-3.5985 5.09149,-17.56331 8.992,-25.24463 1.0621,-2.09158 0.60319,-3.9645 1.64376,-6.01371 0.8569,-1.68747 1.69241,-8.45646 2.46689,-9.22137 3.01742,-2.98014 3.6332,-11.1715 6.51263,-14.01537 0.99245,-0.98018 0.67356,-3.85813 1.63628,-4.80898 1.10392,-1.09028 0.50539,-4.9619 1.24467,-6.41779 0.64397,-1.26813 2.74902,-8.01482 3.66415,-8.00914 0.75543,0.005 2.0449,-0.75826 2.81105,0.0175 2.77577,2.81049 5.96407,4.82635 8.78733,7.68493 0.87921,0.89019 0.87815,2.10145 1.58886,2.82104 2.56014,2.59217 4.51581,5.38052 6.77944,7.67245 0.54862,0.55549 -1.37971,3.11372 -1.62879,3.60423 -0.62003,1.22107 -3.30817,8.85492 -3.67162,9.21389 -1.42117,1.40361 -1.79229,10.15156 -2.88094,11.22677 -1.70023,1.67922 -1.34272,6.91372 -2.86348,8.41571 -1.6588,1.63832 -1.40636,5.54621 -2.4569,7.61503 -3.2833,6.46584 -6.30176,20.19298 -10.59332,24.4315 -1.19062,1.17589 -4.07941,-1.63174 -4.80899,-1.63627 -1.18171,-0.008 -3.65824,-2.08756 -4.3999,-2.83851 -0.78875,-0.79862 -10.26679,-2.94178 -12.82312,-4.49726 z"
       id="path5042"
       inkscape:connector-curvature="0"
       inkscape:export-filename="/home/substack/media/avatars/substack_vector_robot.png"
       inkscape:export-xdpi="80.470001"
       inkscape:export-ydpi="80.470001" />
    <path
       style="fill:#ff0000;fill-opacity:1;stroke:#ffffff;stroke-width:1.63762152px;stroke-linecap:butt;stroke-linejoin:miter;stroke-opacity:0"
       d="m 419.13429,507.95175 c 3.67318,2.86774 -2.354,-2.86847 2.00622,1.67093 1.46327,1.5234 5.05094,0.24571 6.41991,1.67093 0.51553,0.53673 4.58404,1.9889 8.0266,3.32572 3.84451,1.49291 2.07871,-6.09411 3.20994,-8.00151 1.81656,-3.06296 2.00158,-7.31362 4.01451,-10.20115 2.28385,-3.27615 2.49078,-8.8001 3.60742,-11.15165 1.87022,-3.93854 3.19787,-7.41044 4.0138,-9.1094 1.17362,-2.44367 1.16199,-9.32604 4.0121,-14.23521 0.64654,-1.11363 3.73483,-6.4316 2.40781,-8.74009 -2.82621,-4.91649 -7.69312,-7.9307 -9.22656,-9.52714 -0.43366,-0.4515 -3.07054,-2.80205 -4.01449,-3.29342 -0.84456,-0.43964 -1.29998,2.1727 -1.60497,2.49024 -2.84996,2.96708 -5.13014,15.30055 -5.6188,15.80928 -1.627,1.69386 -7.37597,23.29509 -9.62985,27.9881 -1.19931,2.49721 -2.63007,11.09282 -4.01244,12.53198 -0.50479,0.52555 -3.54425,6.33529 -3.6112,6.68372 -0.13108,0.68271 0,1.39245 0,2.08867 z"
       id="path5044"
       inkscape:connector-curvature="0"
       sodipodi:nodetypes="cscssssssscccssscc"
       inkscape:export-filename="/home/substack/media/avatars/substack_vector_robot.png"
       inkscape:export-xdpi="80.470001"
       inkscape:export-ydpi="80.470001" />
    <path
       style="fill:#ffffff;stroke:#ffffff;stroke-width:1.60635114px;stroke-linecap:butt;stroke-linejoin:miter;stroke-opacity:0"
       d="m 279.359,479.70238 c -2.04714,1.02354 -0.85405,5.27152 -2.00794,6.42541 -0.99352,0.99351 -1.87558,8.30098 -2.00794,8.43334 -2.6066,2.60659 -3.2611,11.69444 -5.62223,14.05557 -0.50488,0.50486 0.0695,2.74156 -0.40159,3.2127 -2.27583,2.27583 -4.0698,13.36025 -6.02382,17.26828 -0.83739,1.67478 0.0342,4.34903 -0.80317,6.02382 -1.61265,3.22529 -2.0569,6.12174 -3.61429,9.23651 -1.5999,3.19979 -0.21474,8.6481 -2.81112,11.24446 -0.45026,0.45021 -0.0845,2.57857 -0.40158,3.2127 -1.81345,3.6269 -3.44429,12.27923 -5.62223,14.45716 -0.22462,0.22462 -0.64534,5.30657 -1.20477,6.42541 -1.05347,2.10697 -0.83679,10.91011 -1.60635,12.44922 -1.77505,3.5501 -1.84672,8.1109 -3.61429,11.64605 -3.25856,6.51711 -3.65774,12.5361 -4.81905,15.26033 -1.72598,4.04884 -3.2141,8.58129 -4.41747,12.85081 0.53545,0.26773 1.07804,2.93116 1.60635,3.2127 0.42399,0.22594 1.73547,0.39333 3.3633,0.50199 0.0209,-0.0964 0.1004,-0.2296 0.1004,-0.30119 0,-0.28234 5.52472,-13.15489 5.62223,-13.2524 1.43119,-1.43118 5.81269,0.74107 7.22858,-1.60635 l 5.77282,-5.01985 c -0.46855,0.31485 0.15068,-0.9036 0.251,-1.00397 1.66826,-1.66824 4.80446,-4.00127 6.82699,-6.02381 6.26286,-6.26286 12.54136,-3.43654 21.28415,-5.62223 8.69887,-2.17471 17.14312,2.67942 25.70162,4.81905 11.70847,2.92712 20.74993,5.30446 32.93021,6.82699 11.68309,1.46038 23.38192,2.89302 34.93814,4.81906 0.68056,0.1134 7.91374,1.32279 6.02382,3.2127 -1.47393,1.47394 -1.43655,10.97832 -2.30913,12.65001 1.72634,0.002 3.59713,0 5.27084,0 0,0 0.1489,-3.10904 0.80317,-4.41746 1.59895,-3.19788 1.84226,-6.6613 4.01588,-8.83493 0.88489,-0.88489 -0.15758,-3.70076 0.40159,-4.81906 1.09895,-2.19789 1.71548,-4.63572 2.81111,-6.82699 1.24836,-2.49672 0.25176,-7.3305 1.60635,-10.03969 3.40047,-6.80094 5.17509,-17.98034 8.83493,-25.30003 0.71875,-1.43751 -0.30726,-3.80294 0.40159,-5.22065 1.87683,-3.75364 1.45752,-10.69404 4.01588,-13.25239 0.83718,-0.83718 1.48173,-8.58568 2.40953,-10.44128 1.4057,-2.81141 1.82113,-6.0518 3.2127,-8.83494 2.23528,-4.47057 4.63941,-8.47563 6.82699,-12.8508 0.40136,-0.80273 1.34933,-2.52196 0.80318,-3.61429 -1.83264,-3.66522 -7.50464,-1.74439 -11.24446,-3.61429 -0.53545,-0.26774 -1.4725,0.26773 -2.00794,0 -4.58573,-2.29286 -10.68256,-2.22223 -16.06351,-4.01588 -5.24575,-1.74858 -10.1578,-3.07096 -15.26034,-5.62223 -2.51983,-1.25993 -5.74269,-0.70946 -8.43334,-1.60635 -5.99232,-1.99744 -13.2591,-3.01525 -18.47304,-5.62223 -2.06774,-1.03388 -4.71841,-0.95366 -6.82699,-2.00794 -2.70643,-1.35322 -6.34363,-0.64204 -9.23654,-1.60635 -5.27476,-1.75825 -9.74313,-2.86363 -14.45716,-5.22064 -1.11204,-0.55596 -2.92473,0.14393 -4.01587,-0.40159 -3.23272,-1.61636 -11.07226,-2.63891 -13.2524,-4.81905 -0.45275,-0.45275 -7.11565,-0.74672 -8.03176,-1.20477 -1.45855,-0.72926 -18.16433,-5.37501 -18.47303,-5.22064 z"
       id="path5072"
       inkscape:export-filename="/home/substack/media/avatars/substack_vector_robot.png"
       inkscape:export-xdpi="80.470001"
       inkscape:export-ydpi="80.470001"
       inkscape:connector-curvature="0" />
    <path
       style="fill:#ff0000;stroke:#ffffff;stroke-width:1.60635114px;stroke-linecap:butt;stroke-linejoin:miter;stroke-opacity:0"
       d="m 281.36693,488.13573 c -0.72477,0.36239 -3.79842,19.46036 -5.22064,20.88256 -3.42944,3.42945 -3.79214,16.82081 -6.4254,22.08733 -1.09441,2.18873 -0.20647,5.232 -1.20476,7.22858 -0.48622,0.97242 -0.57119,4.18547 -1.20477,4.81905 -2.99608,2.99609 -3.49115,15.41565 -6.02381,20.48098 -0.48016,0.96029 -0.86893,6.89274 -1.20477,7.22858 -1.12578,1.12578 -1.32162,6.70078 -2.40952,9.6381 -1.06547,2.87674 -4.05268,14.49398 -4.21668,16.6659 -0.15051,1.99366 -2.2494,10.28116 -3.61429,11.64604 -1.06941,1.06942 -1.01031,4.02223 -1.80714,4.81906 -0.94129,0.94129 -1.73923,3.68554 -2.50993,6.82699 -0.006,0.003 -0.0461,-0.005 -0.0501,0 -1.10737,1.10737 -5.75249,12.22142 -5.62223,14.85875 0,0 25.34955,0.35286 29.33608,0.35286 0.90799,0 4.67116,0.14795 5.22064,-0.40158 0.14136,-0.14136 2.40755,0.49678 2.53134,0.29971 0.57502,-0.0247 1.16721,-0.10682 1.70675,-0.1004 4.31226,0.0516 10.38467,-0.4668 14.31517,-0.95374 1.22197,-0.15132 13.99596,0.86669 14.52606,0.60952 2.29798,0.17994 11.90685,-0.005 13.35279,-0.11759 0.92847,-0.0721 3.97821,0.40644 4.8161,0 2.15696,0.57585 3.9895,0.0596 5.68819,-0.0588 2.18791,0.0575 13.00391,-1.85606 13.6225,-1.53745 0.65818,0.339 2.65553,0.59692 3.1123,0.60238 1.06162,0.0129 3.1577,-0.21908 3.71469,0.35139 0.39834,0.40801 3.33213,0.0426 3.96568,0.0501 4.39584,0.0527 9.24594,-0.45374 13.60378,-0.40158 3.13915,0.0376 6.26146,0.61876 9.08593,0.65258 0.89467,0.0112 2.92715,0.43233 3.71468,0.0501 0.4474,-0.21703 1.22009,-0.57589 2.10834,-0.85337 5.6e-4,-0.003 0.0498,0.003 0.0501,0 0.23991,-1.36035 0.60533,-2.62788 1.05417,-3.96568 2.25242,-6.71357 4.27413,-18.78873 5.42143,-22.08733 1.04606,-4.30091 2.57209,-8.35699 3.4135,-10.84287 0.65433,-1.91104 2.52296,-9.06182 3.61429,-11.24445 0.99852,-1.99704 2.46779,-8.09091 3.0119,-9.63811 1.30701,-3.71654 1.73589,-9.29481 4.01588,-13.85478 0.52607,-1.05211 1.26147,-6.08058 2.40953,-8.83493 0.51122,-3.52313 3.0379,-10.57109 3.4135,-12.65002 0.80317,-4.44551 6.89404,-16.19725 6.82699,-19.27621 -0.0328,-1.50412 -19.2625,-3.00505 -22.89051,-4.81905 -1.78242,-0.89121 -4.62839,0.0952 -6.4254,-0.80318 -0.97016,-0.48507 -5.52619,-1.10872 -6.02382,-1.60635 -1.99833,-1.99833 -18.97247,-6.07275 -23.69368,-8.43334 -2.18163,-1.09081 -5.01236,-0.89983 -7.22858,-2.00794 -1.32395,-0.66198 -2.95695,-0.0729 -4.41746,-0.80318 -5.26514,-2.63255 -11.57469,-2.37385 -16.46512,-4.81905 -2.4598,-1.22982 -5.57195,0.0251 -8.03175,-1.20476 -3.55786,-1.77893 -15.81328,-2.56088 -17.66986,-4.41747 -0.79465,-0.79514 -3.91587,-0.35158 -4.81906,-0.80317 -1.47619,-0.73809 -18.21152,-3.74505 -18.47304,-3.61429 z"
       id="path5098"
       inkscape:connector-curvature="0"
       sodipodi:nodetypes="cscsssssssscssscccscsccscccsccccsccssscssscsssscccssc"
       inkscape:export-filename="/home/substack/media/avatars/substack_vector_robot.png"
       inkscape:export-xdpi="80.470001"
       inkscape:export-ydpi="80.470001" />
    <path
       style="fill:#ffffff;stroke:#ffffff;stroke-width:1.60635114px;stroke-linecap:butt;stroke-linejoin:miter;stroke-opacity:0"
       d="m 286.99631,563.22776 c -3.07496,-10.23376 9.88741,-17.91917 16.86669,-24.89845 1.30607,-1.30607 3.24597,-1.63961 4.41746,-2.81111 0.11855,-0.11855 13.08001,-1.49175 13.65399,-1.20476 1.29438,0.64718 2.73725,0.96704 4.01588,1.60635 3.84019,1.92009 7.35517,12.70241 9.23651,16.4651 1.81316,3.6263 1.29562,9.41823 3.21271,13.25239 0.42836,0.85672 -0.42837,2.35599 0,3.21271 1.42303,2.84605 2.89116,15.34038 4.01587,16.46509 0.54819,0.54817 -0.30784,9.42403 0.40161,10.84287 1.06279,2.12558 1.60635,5.53833 1.60635,8.03176 0,1.84147 0.73539,6.35762 1.60635,7.22858 0.18709,0.18709 1.06267,10.96026 1.60635,12.04763 1.23427,2.46856 1.82128,5.56171 2.00794,8.83494 0.142,2.48981 0.28743,2.42544 -3.05472,2.24318 -3.69367,-0.20143 -7.88575,0.49052 -10.59928,-0.23525 -0.4572,-0.12224 0.33465,-1.67328 0,-2.00793 -4.34266,-4.34266 -3.22163,-18.08932 -6.02382,-23.69368 -0.28366,-0.56734 -0.0128,-0.81614 -0.40158,-1.20477 -0.17865,-0.17864 -6.90405,5.69929 -7.63017,6.42541 -2.92558,2.92558 -6.59819,6.19659 -9.23652,8.83493 -1.64221,1.64222 -2.97156,5.38108 -4.81905,7.22858 -1.20477,1.20476 -2.40953,2.40953 -3.61429,3.61429 -0.74132,0.74133 -2.16485,0.96008 -2.81112,1.60635 -0.0643,0.0643 -1.60755,0.0244 -2.90855,-0.11759 -3.03692,-0.33143 -4.79197,0.11759 -7.53273,0.11759 -1.0538,0 -8.73714,0.49938 -9.23652,0 -0.46359,-0.46358 1.53233,-2.73709 1.60635,-2.81111 3.68157,-3.68157 8.6179,-6.60996 12.85081,-10.84288 1.28185,-1.28183 3.06347,-1.4571 4.41747,-2.81111 3.29035,-3.29035 5.82498,-7.43132 9.23651,-10.84287 4.80897,-4.80897 12.39761,-9.98807 16.86669,-14.45716 1.17481,-1.1748 0.30326,-7.42523 -0.80317,-9.63811 -1.28831,-2.57663 1.60517,-14.85992 0,-16.4651 -1.0023,-1.00228 -0.0627,-4.07854 -1.20477,-5.22064 -3.52428,-3.52427 -5.46787,-10.28692 -8.83493,-13.65398 -1.41179,-1.41179 -5.18573,0.18335 -6.4254,0.80317 -2.4307,1.21535 -2.73933,7.95997 -4.81906,10.0397 -1.24097,1.24099 -3.22166,3.62327 -4.41746,4.81905 -2.20702,2.20702 -13.2524,4.76927 -13.2524,-0.80317 z"
       id="path5113"
       inkscape:connector-curvature="0"
       sodipodi:nodetypes="cssssssssssssssssscssssssscssssssssssssc"
       inkscape:export-filename="/home/substack/media/avatars/substack_vector_robot.png"
       inkscape:export-xdpi="80.470001"
       inkscape:export-ydpi="80.470001" />
    <path
       style="fill:#ffffff;stroke:#ffffff;stroke-width:1.60635114px;stroke-linecap:butt;stroke-linejoin:miter;stroke-opacity:0"
       d="m 280.22763,481.43944 c 1.22526,-0.20113 -1.85911,-0.43929 -2.55569,-1.13587 -0.28008,-0.28008 -0.36098,-0.9289 -0.56792,-1.13585 -0.83012,-0.83011 -4.8451,-2.00543 -5.39535,-2.5557 -0.67485,-0.67484 -2.44877,-0.74498 -3.12362,-1.41982 -1.63362,-1.63361 -6.15332,-3.02969 -8.51896,-5.39535 -1.23745,-1.23744 -4.29972,-1.46004 -5.39535,-2.55569 -1.49381,-1.49381 -3.84968,-2.99779 -5.11137,-4.25948 -1.34473,-1.34471 -4.18519,-1.91345 -5.11138,-2.83964 -0.40241,-0.40241 -1.00373,-1.0698 -1.70379,-1.41984 -0.98592,-0.49296 -2.38792,-0.68413 -3.12363,-1.41982 -0.83935,-0.83935 -4.56945,-0.59393 -5.39533,-1.41982 -2.6097,-2.6097 -8.53346,-3.99 -10.7907,-6.24725 -0.48999,-0.48998 -1.86515,-0.16136 -2.27172,-0.56792 -2.45349,-2.4535 -9.5361,-5.05203 -13.06241,-6.81519 -1.42442,-0.71219 -4.14069,-1.30103 -5.11138,-2.27172 -2.13617,-2.13617 -5.17851,-3.58312 -7.66706,-4.8274 -0.4956,-0.2478 -2.52252,-2.58888 -3.12362,-1.98777 -0.94349,0.94349 -1.41666,3.97233 -2.27173,4.82741 -1.84796,1.84798 -2.58705,4.29084 -4.25948,5.96327 -1.09693,1.09695 -1.40138,4.52501 -2.55569,5.67932 -0.86441,0.86441 2.47704,19.67228 1.41982,20.72948 -0.50809,0.50809 -0.36835,14.96576 0,15.33413 0.5211,0.5211 2.21839,-0.0533 2.83966,0.56793 1.736,1.736 6.24527,4.82642 8.51896,5.96327 0.17545,0.0877 1.0306,0.17871 1.13587,0.28397 1.84438,1.84438 5.23386,3.53007 7.38309,5.6793 1.17253,1.17253 3.45444,1.46668 4.54345,2.55569 1.10211,1.1021 5.14203,2.01842 6.81517,3.69156 0.26846,0.26845 1.46625,0.0464 1.7038,0.28397 0.91362,0.91361 2.89291,1.1891 3.69155,1.98775 2.25302,2.25303 5.50789,3.60585 8.51896,5.11139 1.42479,0.71238 2.52143,2.23745 3.40759,3.12361 0.52081,0.52082 1.88216,0.7991 2.55569,1.13587 2.15876,1.07937 6.01496,4.31117 7.66706,5.96327 1.1727,1.17269 3.41784,0.99901 4.82741,1.7038 1.75172,0.87586 2.75054,2.18258 3.69155,3.12361 0.19675,0.19675 1.22308,0.0872 1.41983,0.28397 1.16899,1.16898 4.01282,4.54344 6.24724,4.54344 0.53467,-0.35761 5.87227,2.6467 5.96327,2.55569 1.08256,-1.08256 0.26552,-7.63016 1.13587,-9.37086 1.75036,-3.50074 3.11634,-6.80059 4.82741,-10.22276 0.23512,-0.47024 0.0453,-1.2263 0.28397,-1.70379 1.74045,-3.4809 1.97907,-7.08177 3.69155,-10.50672 0.8017,-1.6034 0.68485,-6.19713 1.41982,-7.66707 0.48594,-0.97187 4.02528,-11.62799 3.97551,-11.92655 -0.0838,-0.50278 -0.37861,-0.94654 -0.56792,-1.41982 z"
       id="path5131"
       inkscape:connector-curvature="0"
       inkscape:export-filename="/home/substack/media/avatars/substack_vector_robot.png"
       inkscape:export-xdpi="80.470001"
       inkscape:export-ydpi="80.470001" />
    <path
       style="fill:#ff0000;fill-opacity:1;stroke:#ffffff;stroke-width:1.60635114px;stroke-linecap:butt;stroke-linejoin:miter;stroke-opacity:0"
       d="m 267.16522,479.16772 c -2.6508,-0.29327 -3.1605,7.17288 -5.11138,11.07465 -0.82083,1.64166 -0.17145,4.14698 -1.70379,5.67931 -0.63903,0.63902 -0.2971,2.56883 -0.8519,3.12361 -0.52308,0.52309 -0.25072,4.79417 -0.8519,5.39535 -0.37792,0.37793 -2.83966,7.66006 -2.83966,8.51896 0,2.28804 -1.13585,4.23897 -1.13585,6.81517 0,0.64461 -0.28397,1.47052 -0.28397,2.27173 0,0.28396 0.28397,0.8519 0,0.8519 -0.7785,0 2.27174,-2.64315 2.27174,-4.25948 0,-1.84485 2.17794,-5.49178 3.12361,-7.38311 0.34525,-0.69051 0.7778,-3.61746 1.13587,-3.97551 1.76782,-1.76782 3.10776,-7.3514 4.54343,-10.22276 0.38807,-0.77612 0.79263,-4.76813 1.13587,-5.11137 0.50701,-0.50703 2.6682,-8.8619 1.98776,-10.22276 -0.44054,-0.88106 -0.80762,-1.53535 -1.41983,-2.55569 z"
       id="path5146"
       inkscape:connector-curvature="0"
       inkscape:export-filename="/home/substack/media/avatars/substack_vector_robot.png"
       inkscape:export-xdpi="80.470001"
       inkscape:export-ydpi="80.470001" />
    <path
       style="fill:#ff0000;fill-opacity:1;stroke:#ffffff;stroke-width:1.60635114px;stroke-linecap:butt;stroke-linejoin:miter;stroke-opacity:0"
       d="m 256.09057,471.78461 c -2.85891,1.03912 -2.95661,12.16047 -5.39535,17.03793 -0.54043,1.08086 -0.96608,5.22555 -1.41982,5.67932 -0.67337,0.67336 -2.27172,4.32585 -2.27172,5.39533 0,0.38994 -4.38524,9.33842 -5.11138,10.79069 -0.94008,1.88017 1.79796,6.15307 2.83964,5.11138 1.14949,-1.14949 1.61272,-3.22541 2.27174,-4.54345 1.28498,-2.56997 4.09674,-9.20812 6.24723,-11.35862 0.77235,-0.77234 1.59547,-5.46267 2.27173,-6.81517 1.20337,-2.40675 0.74613,-10.2952 1.98776,-12.77845 0.18931,-0.37861 -0.18932,-1.0412 0,-1.41982 0.47058,-0.94117 0.82033,-5.17449 0.28396,-6.24724 -0.24165,-0.4833 -1.69331,-0.8477 -1.70379,-0.8519 z"
       id="path5148"
       inkscape:connector-curvature="0"
       inkscape:export-filename="/home/substack/media/avatars/substack_vector_robot.png"
       inkscape:export-xdpi="80.470001"
       inkscape:export-ydpi="80.470001" />
    <path
       inkscape:connector-curvature="0"
       style="fill:#ff0000;fill-opacity:1;stroke:#ffffff;stroke-width:1.60635114px;stroke-linecap:butt;stroke-linejoin:miter;stroke-opacity:0"
       d="m 221.03552,450.70338 c -0.0678,0.006 -0.11823,0.0178 -0.15052,0.0501 -0.82812,0.82813 -8.52807,3.14024 -10.79267,2.00794 -0.71054,-0.35526 -13.90107,-1.00591 -14.20617,-0.85337 -0.48078,0.24039 -0.89542,0.57501 -1.35535,0.85337 -0.002,-0.003 -0.0413,0.005 -0.0501,0 -0.14811,-0.0806 -1.15457,-0.31235 -1.15457,0 0,0.0946 0.0737,0.13285 0.15052,0.15052 -2.25985,0.45222 -6.97759,1.934 -6.97759,2.40952 0,0.73787 3.456,0.55219 4.26687,0.55219 0.99472,0 3.32187,-0.4656 3.96568,-0.251 4.10713,1.36905 6.88267,1.65655 11.09386,1.65655 2.47497,0 14.60119,-0.35468 15.91292,0.3012 0.25279,0.12641 0.72653,0.24077 1.30516,0.35138 -1.2086,0.52607 -2.1728,1.11864 -2.71072,1.65655 l -4.56806,4.51787 c -0.44388,0.44388 -1.40882,0.55544 -1.70675,0.85337 -1.43683,1.43683 -3.67793,2.87476 -5.37124,4.56806 -0.76157,0.76159 -2.47779,0.72085 -3.1625,1.40556 -1.54984,1.54984 -3.85367,2.67981 -5.92342,3.71469 -1.62127,0.81062 -3.89871,0.73622 -5.12024,1.95774 -0.2927,0.29269 -1.41407,0.25949 -1.70675,0.55218 -0.55922,0.55922 -2.37178,0.11277 -2.86131,0.60238 -0.65405,0.65406 -0.74341,0.80127 -2.25894,1.10437 -0.46476,0.96802 -1.31396,2.09951 -0.55218,2.86131 0.46941,0.46939 5.92177,7.7e-4 6.5258,-0.30119 0.47025,-0.23512 1.22926,-0.0129 1.70675,-0.25099 2.06617,-1.03308 6.57295,-4.06303 7.93136,-5.42144 1.44347,-1.44346 5.43376,-1.41788 6.82699,-2.81111 0.60881,-0.60881 1.73088,-1.04113 2.56012,-1.45576 2.27924,-1.13961 10.61725,-6.90255 11.64605,-7.93136 0.14232,-0.14232 0.91821,-0.11501 1.10437,-0.30119 2.21321,-2.21321 6.7463,-1.58412 9.03572,-2.91151 -0.20115,0.87039 -0.25488,1.81103 -0.80317,2.35933 -1.38539,1.38538 -1.67602,2.83058 -3.11231,4.26687 l -15.05954,15.05954 c -1.32625,1.32627 -1.68865,3.39538 -3.11231,4.81905 -1.24823,1.24822 -3.09544,3.37974 -3.96568,5.12025 -0.68946,1.37891 0.25051,3.59847 0,2.56012 3.65452,-0.7309 8.72421,-5.36091 11.34486,-7.98156 1.93556,-1.93555 2.77031,-5.58142 4.56806,-7.37917 3.26057,-3.26057 8.43317,-7.32879 12.19823,-11.09386 0.86282,-0.86282 2.76099,-3.60758 3.61429,-5.87323 0.21339,0.19057 0.38859,0.36049 0.60238,0.55219 0.21732,0.6018 0.50645,1.25943 0.60238,1.35536 0.89027,0.89027 -0.55295,5.37279 -0.85337,5.97361 -0.30532,0.61077 0.16412,0.99045 -0.25099,1.40556 -0.48954,0.48955 0.25802,2.60329 -0.3012,3.16251 -1.12105,1.12105 -1.41349,6.78474 -2.00793,7.37917 -0.7213,0.7213 -0.55349,3.4148 -1.10437,3.96568 -0.72724,0.72723 -0.3854,2.64431 -1.15457,3.4135 -2.08485,2.08483 -2.44501,8.97081 -4.81905,11.34485 -0.45808,0.45808 -1.75187,4.77902 -1.15456,5.97362 1.56746,3.13494 2.70562,-0.69769 3.71468,-1.70675 1.52567,-1.52566 9.08593,-20.86714 9.08593,-24.14546 0,-5.82728 1.926,-11.21518 1.55615,-17.11768 0.13445,-0.0681 0.37752,-0.17673 0.40159,-0.2008 0.28395,-0.28397 -0.28397,-1.42279 0,-1.70674 2.34398,-2.34399 -5.93158,-5.3794 -7.07799,-6.52581 -0.79193,-0.79193 -3.07303,-0.21171 -3.71468,-0.85337 -0.15213,-0.15212 -2.21828,-1.74742 -2.81112,-1.15457 -0.27838,0.27837 -0.26837,0.5735 -0.20079,0.95378 -1.4674,-0.72945 -3.04809,-1.27305 -3.5139,-1.50596 -0.35449,-0.17726 -4.45099,-1.96195 -5.82302,-2.05814 -0.098,-0.006 -0.1832,-0.006 -0.25099,0 z"
       id="path5150"
       inkscape:export-filename="/home/substack/media/avatars/substack_vector_robot.png"
       inkscape:export-xdpi="80.470001"
       inkscape:export-ydpi="80.470001" />
    <path
       style="fill:#ff0000;fill-opacity:1;stroke:#ffffff;stroke-width:1.60635114px;stroke-linecap:butt;stroke-linejoin:miter;stroke-opacity:0"
       d="m 216.05144,500.46513 c -0.32046,-0.60213 -1.79349,-1.61411 -1.13586,-2.27174 2.97128,-2.97126 6.29953,-7.6932 10.79069,-9.93878 0.28953,-0.14473 2.8683,-3.09496 3.12362,-2.83966 0.49461,0.49463 -1.76696,3.8179 -1.98777,4.25948 -1.05895,2.11791 -3.59718,4.73305 -5.39534,6.53122 -0.52494,0.52494 -1.37975,2.79958 -2.27172,3.69154 -0.2623,0.26231 -2.74718,0.49265 -3.12362,0.56794 z"
       id="path5152"
       inkscape:connector-curvature="0"
       inkscape:export-filename="/home/substack/media/avatars/substack_vector_robot.png"
       inkscape:export-xdpi="80.470001"
       inkscape:export-ydpi="80.470001" />
    <path
       style="fill:#ff0000;fill-opacity:1;stroke:#ffffff;stroke-width:1.60635114px;stroke-linecap:butt;stroke-linejoin:miter;stroke-opacity:0"
       d="m 187.6549,463.54962 c -0.28397,0.37862 -0.47328,1.41982 -0.8519,1.13585 -0.37861,-0.28395 0.8519,-1.60913 0.8519,-1.13585 0,0.64527 -2.44846,3.23084 -1.41984,4.25948 2.1208,2.1208 14.15632,-1.66183 15.33415,-2.83966 0.26253,-0.26252 3.69154,-1.09392 3.69154,-1.41982 0,-0.48303 -3.14906,-0.56794 -3.69154,-0.56794 -3.4459,0 -10.98168,-1.19164 -13.91431,0.56794 z"
       id="path5158"
       inkscape:connector-curvature="0"
       inkscape:export-filename="/home/substack/media/avatars/substack_vector_robot.png"
       inkscape:export-xdpi="80.470001"
       inkscape:export-ydpi="80.470001" />
    <path
       style="fill:#ff0000;fill-opacity:1;stroke:#ffffff;stroke-width:1.60635114px;stroke-linecap:butt;stroke-linejoin:miter;stroke-opacity:0"
       d="m 190.21059,442.82013 c -0.28397,0.37863 -0.47328,1.41983 -0.8519,1.13586 -0.37861,-0.28397 1.18655,-1.47051 0.8519,-1.13586 -6.49758,6.49757 11.05928,4.55882 11.92654,3.69155 0.11052,-0.11051 -3.95544,-1.70379 -4.8274,-1.70379 -0.68371,0 -2.17094,-1.03507 -2.55569,-1.41982 -0.26102,-0.261 -4.17648,-0.49455 -4.54345,-0.56794 z"
       id="path5227"
       inkscape:connector-curvature="0"
       inkscape:export-filename="/home/substack/media/avatars/substack_vector_robot.png"
       inkscape:export-xdpi="80.470001"
       inkscape:export-ydpi="80.470001" />
    <path
       style="fill:#ff0000;fill-opacity:1;stroke:#ffffff;stroke-width:1.60635114px;stroke-linecap:butt;stroke-linejoin:miter;stroke-opacity:0"
       d="m 251.26316,306.23275 c -0.72879,-0.33489 -2.60128,1.46541 -4.54345,3.40758 -2.2563,2.2563 -5.58068,5.59263 -3.97551,8.80294 0.45035,0.90074 0.16335,2.15113 0.85189,2.83966 0.57098,0.57099 1.55987,0.99193 1.98775,1.41982 0.57903,0.57902 3.44464,-0.92602 3.69156,-1.41982 0.33722,-0.67445 0.92212,-0.92213 1.41982,-1.41983 1.28167,-1.28167 0.95247,-3.50815 1.98776,-4.54345 0.81233,-0.81233 4.04015,-5.07907 5.67932,-4.25948 0.77449,0.38725 1.99391,2.26555 0.8519,3.40759 -2.3379,2.3379 -9.54477,7.03532 -6.81519,12.49447 0.8864,1.77278 0.97787,2.61867 3.12363,3.69155 6.30494,3.15247 7.28254,-5.86271 9.93878,-8.51896 0.23665,-0.23663 0.0474,-0.89922 0.28397,-1.13586 0.35965,-0.35965 5.06232,-4.35759 5.96328,-2.55569 0.0291,0.0583 0.04,0.81185 0,0.85189 -0.35931,0.35931 -4.92111,5.11138 -3.40759,5.11138 0.71023,0 3.01135,-2.44342 3.40759,-2.83966 0.96371,-0.96371 4.75753,-0.67496 6.24724,-1.41982 1.80572,-0.90287 6.64575,0.73735 7.66707,-0.28396 0.44287,-0.44287 -0.76967,-1.05363 -0.8519,-1.13586 -0.18616,-0.18616 -0.14168,-0.99359 -0.28397,-1.13587 -2.23031,-2.23031 -5.12,-3.97551 -8.23499,-3.97551 -0.50557,0 -2.55257,0.28709 -2.55569,0.28396 -1.96106,-1.96107 -0.3489,-5.4278 -3.69155,-7.09913 -1.20019,-0.6001 -4.52182,0.58955 -4.54346,0.56793 -0.66403,-0.66404 -1.00528,-2.6324 -2.55568,-3.40759 -3.71019,-1.85509 -7.91949,2.27172 -11.64258,2.27172 z"
       id="path5313"
       inkscape:connector-curvature="0"
       inkscape:export-filename="/home/substack/media/avatars/substack_vector_robot.png"
       inkscape:export-xdpi="80.470001"
       inkscape:export-ydpi="80.470001" />
    <path
       inkscape:connector-curvature="0"
       style="fill:#ff0000;fill-opacity:1;stroke:#ffffff;stroke-width:1.60635114px;stroke-linecap:butt;stroke-linejoin:miter;stroke-opacity:0"
       d="m 281.27369,323.09886 c -1.39523,-0.0228 -3.55181,0.59737 -5.42144,1.30516 -3.22536,0.4861 -7.31261,2.49354 -8.93533,4.11627 -0.64461,0.64462 -0.80317,2.51009 -0.80317,3.61429 0,0.39703 -0.0382,1.76892 0.20079,2.00794 0.94155,0.94153 1.01756,2.4231 1.80715,3.2127 0.85029,0.85028 2.19477,1.19079 3.0119,2.00794 1.27617,1.27615 9.43169,-1.21038 10.24049,-0.40158 0.0374,0.0374 0.062,0.0718 0.0501,0.10039 -0.0355,0.0855 -0.25099,0.14618 -0.25099,0.30119 0,0.46739 -0.8447,2.75424 -1.15457,4.21667 -0.2803,0.0419 -0.57149,0.0696 -0.65258,0.15052 -1.42559,1.42559 -3.46538,2.05981 -4.81905,3.4135 -0.96969,0.96967 -2.03412,-3.4899 -2.25893,-3.71469 -2.18832,-2.18833 -4.69337,-4.73112 -7.68037,-6.22461 -3.03684,-1.51842 -6.00383,1.69876 -7.73056,4.51786 0.14168,-1.34124 0.36083,-2.67942 0.60238,-3.1625 0.27774,-0.55548 0.80317,-2.11562 0.80317,-2.40953 0,-0.54179 -1.54084,-0.93848 -1.80714,-1.20476 -0.59633,-0.59633 -1.52385,-1.06243 -2.25893,-1.50596 -0.13783,-0.1831 -0.27642,-0.37681 -0.40159,-0.50198 -0.28471,-0.28473 -0.6489,-0.48604 -1.05417,-0.65258 -0.0204,-0.008 -0.0297,-0.0421 -0.0501,-0.0501 -0.76798,-0.59857 -1.56466,-1.01248 -2.25893,-1.70675 -0.34615,-0.34615 -1.6125,-0.006 -2.00794,-0.40159 -0.88055,-0.88057 -2.89202,-1.12386 -4.01587,0 -0.69003,0.69003 -1.20477,0.16499 -1.20477,1.60636 0,1.11381 -0.20371,2.14961 -0.40158,3.1123 -0.62407,1.62727 -0.95378,3.55985 -0.95378,5.47163 0,5.93316 5.84581,8.05452 8.83494,11.04367 1.75564,1.75563 0.92135,5.60758 1.95774,7.68036 1.36053,2.72107 10.07204,8.46737 13.95517,6.52581 2.21967,-1.10985 3.65376,-3.65376 5.37124,-5.37124 1.27036,-1.27038 2.44498,-2.19399 3.96568,-3.71469 0.87266,-0.87268 2.171,-0.96623 3.1625,-1.95774 3.75151,-3.7515 9.45368,-8.09832 13.3026,-11.94723 0.85568,-0.85571 -0.29115,-3.08222 0.30119,-4.26687 0.5215,-1.04302 -0.87007,-9.95599 -1.70675,-10.79268 -1.17448,-1.17448 -2.52883,-1.80878 -4.26687,-3.1123 -0.29917,0.11517 -2.1161,0.0463 -4.51786,-1.15457 -0.24298,-0.12144 -0.56668,-0.14425 -0.95377,-0.15051 z"
       id="path5315"
       inkscape:export-filename="/home/substack/media/avatars/substack_vector_robot.png"
       inkscape:export-xdpi="80.470001"
       inkscape:export-ydpi="80.470001" />
    <path
       style="fill:#ff0000;fill-opacity:1;stroke:#ffffff;stroke-width:1.60635114px;stroke-linecap:butt;stroke-linejoin:miter;stroke-opacity:0"
       d="m 202.98903,426.91807 c -2.09026,2.81966 -1.88621,2.89044 2.55569,5.11138 0.89981,0.4499 6.674,2.13056 7.09914,2.55569 1.35954,1.35953 4.8244,2.98013 6.24723,3.69155 0.42689,0.21344 2.43535,1.82414 3.12363,1.13587 3.63684,-3.63685 4.60388,-8.07192 6.81517,-12.49449 0.5854,-1.17079 0.65317,-2.07301 1.41982,-2.83966 0.7514,-0.75139 0.9791,-2.6829 1.70379,-3.40758 0.57638,-0.57636 1.91546,-4.96678 2.55569,-6.24723 0.18415,-0.36832 2.42268,-2.70666 2.55569,-2.83966 0.23788,-0.23789 0.42361,-4.68309 0.85189,-5.11138 1.16694,-1.16693 0.9744,-2.8007 1.7038,-4.25948 1.76957,-3.53913 2.96185,-9.49305 5.39535,-11.92655 1.38249,-1.38249 2.81709,-4.80485 4.25948,-6.24724 0.79519,-0.79519 0.73397,-2.43777 1.41982,-3.12363 0.8292,-0.82918 0.48394,-2.75565 1.13586,-3.40759 0.0832,-0.0832 1.30346,-0.96826 1.98777,-0.28395 1.21286,1.21286 -3.69156,8.99513 -3.69156,9.93878 0,1.08969 -1.875,4.31792 -2.55569,5.67932 -1.01099,2.02198 -0.69362,4.79482 -1.70379,6.81517 -1.64187,3.28374 -2.55561,6.24707 -4.25948,9.65481 -0.9196,1.83921 -0.50801,4.42362 -1.41982,6.24725 -1.7117,3.42337 -2.16435,7.45231 -3.97553,11.07465 -0.77206,1.54412 -5.6793,12.52824 -5.6793,12.77846 0,0.46987 -0.77106,2.35255 -0.28397,2.83964 0.36835,0.36835 1.07678,1.10633 1.70379,1.41984 1.35738,0.67868 5.2576,6.95291 5.96327,6.24724 0.81128,-0.81128 1.47173,-6.35101 2.27174,-7.95103 3.7987,-7.59742 7.40594,-16.82252 10.22275,-25.27293 0.55622,-1.66865 0.57676,-3.43409 1.13585,-5.11138 1.36505,-4.0951 3.37728,-8.45834 5.39535,-12.49449 0.60232,-1.20462 1.22255,-5.19806 1.98776,-5.96327 1.04621,-1.0462 3.12362,-7.81631 3.12362,-9.37086 0,-2.25309 3.62399,-9.22203 2.83966,-10.79068 -0.60818,-1.21635 -5.05218,-0.56794 -6.5312,-0.56794 -0.45281,0 -2.07207,-0.36826 -2.27173,-0.56793 -4.56166,-4.56165 -7.71653,-11.69203 -12.77845,-16.75397 -0.80965,-0.80965 -1.45095,-2.30285 -2.27172,-3.12361 -0.25735,-0.25735 0.30068,-2.1381 -0.56794,-1.70379 -0.75485,0.37742 -0.50622,1.07416 -0.85189,1.41983 -1.83939,1.83939 -3.71355,5.74531 -4.54344,8.235 -0.50057,1.50171 -0.82452,3.66416 -1.98776,4.8274 -3.28004,3.28004 -5.84566,9.70357 -7.95104,13.91431 -0.6357,1.27141 -1.3177,5.29322 -2.27172,6.24725 -2.35346,2.35344 -3.57011,8.96546 -5.39534,10.79068 -0.40657,0.40656 -0.0779,1.78173 -0.56793,2.27173 -1.16643,1.16642 -2.03073,5.15435 -3.12363,6.24723 -1.6096,1.60961 -2.95832,3.92891 -4.25948,6.53121 -1.1589,2.31782 -1.37038,5.91383 -3.12361,7.66707 -0.48999,0.48998 -0.16136,1.86515 -0.56793,2.27172 -0.79551,0.79551 -2.68383,3.89244 -2.83966,4.82742 -0.65603,3.93618 2.4836,-2.71951 0,1.41982 z"
       id="path5336"
       inkscape:connector-curvature="0"
       inkscape:export-filename="/home/substack/media/avatars/substack_vector_robot.png"
       inkscape:export-xdpi="80.470001"
       inkscape:export-ydpi="80.470001" />
    <path
       inkscape:connector-curvature="0"
       style="fill:#ffffff;fill-opacity:1;stroke:#ffffff;stroke-width:1.60635114px;stroke-linecap:butt;stroke-linejoin:miter;stroke-opacity:0"
       d="m 427.10026,519.22429 c -2.22322,0.0165 -4.51739,0.22568 -5.17044,0.55218 -1.40878,0.7044 -2.29292,6.82057 -2.86131,6.827 -0.71902,1.79757 -1.5493,4.9628 -2.56012,5.97361 -0.81129,0.81129 -1.64619,9.6174 -2.50993,11.34486 -0.61274,1.2255 -0.53955,4.20404 -1.45575,5.12024 -1.68993,1.68995 -3.31352,8.63499 -4.51787,11.04367 -0.88474,1.76949 1.58896,2.44232 2.25894,3.1123 0.43871,0.43871 0.4865,1.27421 0.85337,2.00794 0.079,0.15791 0.12947,0.26045 0.20079,0.40159 0.11807,0.78811 0.2945,1.49925 0.65258,1.85734 0.0504,0.0504 0.43155,0.4285 0.80318,0.60238 0.67793,2.68534 0.0501,12.82432 0.0501,14.75835 0,0.86006 0.5473,4.82393 0,5.37124 -0.39108,0.39107 -2.59747,13.26223 -2.96171,16.11371 -0.30098,0.46783 -0.34991,1.20486 -0.35139,1.95774 -3e-5,0.0178 3e-5,0.0324 0,0.0501 -0.13044,0.59636 -0.27006,1.24571 -0.30119,1.85734 -0.0374,0.0598 -0.0522,0.15261 -0.1004,0.2008 -0.88802,0.88802 -1.13273,5.95178 -1.70675,6.5258 -1.83055,1.83055 -2.22417,7.09342 -3.66449,8.53374 -0.76565,0.76565 -1.48452,7.15697 -2.56012,8.23255 -0.2688,0.26882 -0.3971,0.74783 -0.40159,1.30516 -0.18103,0.29929 -0.33657,0.53737 -0.45178,0.65258 -0.16248,0.16248 -0.15164,0.4666 -0.0501,0.80317 1.49418,-0.24553 4.35485,-0.0941 5.57203,-0.70277 0.48191,-0.24096 1.32524,0.24095 1.80715,0 1.89719,-0.9486 12.44708,-1.80786 14.85874,-1.00397 0.84334,0.28111 1.96778,-0.28112 2.81112,0 3.33552,1.11185 7.44129,-0.64961 10.84287,0.20079 0.98733,0.24683 2.09784,0.29769 3.01191,0.60238 1.62031,0.5401 6.68867,-0.47074 8.03175,0.2008 0.28871,0.14441 0.5976,0.40158 0.80318,0.40158 0.14409,0 1.07903,0.31522 1.50595,0.50199 0.0246,-0.58696 0.049,-1.10321 0.2008,-1.25496 1.23091,-1.23092 2.43399,-6.76947 3.1625,-13.00141 0.002,-0.0162 -0.002,-0.0339 0,-0.0501 0.37251,-0.8899 0.1683,-1.89276 0.55218,-2.66052 1.83266,-3.6653 2.61032,-9.48344 2.61032,-14.25636 0,-6.27973 1.40556,-12.04519 1.40556,-18.47304 0,-2.16883 -0.88149,-12.69419 -0.20079,-14.05557 1.90755,-3.81512 -0.73528,-22.62181 -2.61032,-24.49686 -0.0418,-0.0418 -0.14811,-0.0191 -0.251,0 -0.0517,-0.87637 -0.10039,-1.86836 -0.10039,-2.45972 0,-3.04478 -0.84298,-7.97117 -2.56013,-9.68831 -0.83303,-0.83303 -0.68804,-4.65372 -1.70674,-5.67242 -0.66479,-0.66481 -1.01552,-2.11991 -1.70675,-2.81112 -1.63676,-1.63676 -3.02693,-2.94412 -5.67243,-4.26687 -1.93596,-0.96797 -10.63029,-1.54436 -10.79267,-1.70675 -0.3929,-0.39289 -2.54563,-0.56877 -4.76886,-0.55218 z"
       id="path5354"
       inkscape:export-filename="/home/substack/media/avatars/substack_vector_robot.png"
       inkscape:export-xdpi="80.470001"
       inkscape:export-ydpi="80.470001" />
    <path
       style="fill:#ff0000;fill-opacity:1;stroke:#ffffff;stroke-width:1.60635114px;stroke-linecap:butt;stroke-linejoin:miter;stroke-opacity:0"
       d="m 411.43834,610.48511 c -0.12481,1.47499 -0.0582,3.02796 -0.60238,4.11628 -0.44051,0.88102 -0.96505,1.67908 -1.40556,2.56012 -1.16512,2.33022 -0.58911,6.31174 -2.25893,7.98156 -0.62416,0.62416 -0.0575,2.56748 -0.60238,3.1123 -0.2117,0.2117 -0.85338,1.66421 -0.85338,1.95774 0,0.46875 -1.40075,3.71948 -1.10436,4.01588 0.0752,0.0752 0.73645,0 0.85337,0 2.08265,0 4.56153,-0.30119 6.82699,-0.30119 2.39146,0 18.14922,-0.26232 19.27622,0.30119 2.75142,1.37571 9.40846,1.26939 11.94723,0 0.91252,-0.45625 2.7172,0.64758 3.382,-0.0172 1.53754,-1.53753 1.48112,-5.76049 2.5744,-7.94711 1.16104,-2.60607 2.27615,-8.36818 2.27615,-9.95652 0,-1.06241 0.11823,-1.81412 0.2008,-2.61032 -0.90847,0.0498 -2.35978,-0.35094 -2.76092,0.0501 -0.30959,0.30959 -5.477,1.45575 -6.22461,1.45575 -4.35504,0 -14.08882,-0.8198 -17.06748,-2.30913 -1.36458,-0.68228 -5.56366,-0.34721 -7.68037,-1.40556 -1.40873,-0.70438 -4.9699,-0.47506 -6.77679,-1.00397 z"
       id="path5356"
       inkscape:connector-curvature="0"
       sodipodi:nodetypes="cssscscssssscscssscc"
       inkscape:export-filename="/home/substack/media/avatars/substack_vector_robot.png"
       inkscape:export-xdpi="80.470001"
       inkscape:export-ydpi="80.470001" />
    <path
       style="fill:#ff0000;fill-opacity:1;stroke:#ffffff;stroke-width:1.60635114px;stroke-linecap:butt;stroke-linejoin:miter;stroke-opacity:0"
       d="m 427.55205,522.2658 c -2.23697,-0.17631 -1.43099,2.83656 -2.40953,3.81509 -1.11649,1.11649 1.90825,8.53303 0.80318,9.6381 -0.51384,0.51384 -0.25221,3.26413 -0.80318,3.81509 -1.73129,1.73129 -1.43726,6.68963 -2.61032,9.03572 -0.36637,0.73276 -0.0352,1.87757 -0.40158,2.61032 -0.39205,0.78411 -0.6273,2.63525 -1.20477,3.21271 -0.65542,0.65542 -2.70628,4.81017 -3.2127,5.82302 -0.78806,1.57612 -4.43528,5.00203 -2.81111,6.6262 0.55796,0.55796 2.07959,-0.3441 2.20873,-0.60238 0.72714,-1.45431 4.10011,-3.29694 5.22064,-4.41747 1.13,-1.13 1.64257,-3.04812 2.81111,-4.21667 0.38368,-0.38368 0.43383,-1.237 0.80318,-1.60635 3.74013,-3.74013 6.4254,-18.23864 6.4254,-24.49686 0,-1.70708 0.34416,-8.08918 -0.60238,-9.03572 -1.13583,-1.13584 -2.01758,-1.31946 -3.2127,-0.60238 -1.09299,0.65579 -1.00397,0.34197 -1.00397,1.20476"
       id="path5427"
       inkscape:connector-curvature="0"
       inkscape:export-filename="/home/substack/media/avatars/substack_vector_robot.png"
       inkscape:export-xdpi="80.470001"
       inkscape:export-ydpi="80.470001" />
    <path
       inkscape:connector-curvature="0"
       style="fill:#ff0000;fill-opacity:1;stroke:#ffffff;stroke-width:1.60635114px;stroke-linecap:butt;stroke-linejoin:miter;stroke-opacity:0"
       d="m 442.10961,524.39473 c -1.05521,0.89921 -1.78214,2.2171 -2.45973,3.4135 -0.25806,0.45564 -0.0728,1.6742 -0.10039,2.20873 -0.20171,3.90077 0.50824,8.77201 -1.20477,11.79664 -0.177,0.31255 0.12674,0.89222 -0.0501,1.20477 -0.95247,1.68178 -1.62044,3.96484 -2.30913,5.72262 -0.70517,1.79984 -1.91104,3.19139 -2.86131,4.86925 -0.42777,0.75529 -2.15918,5.20558 -2.50992,5.52184 -0.80666,0.72734 -2.22639,3.03364 -2.81112,4.06607 -0.0373,0.0659 -0.13188,0.17307 -0.20079,0.25099 -0.0201,0.1253 -0.0663,0.26712 -0.15052,0.35139 -0.49805,0.49804 -0.73646,1.43925 -1.25496,1.95774 l -3.01191,3.01191 c -1.32307,1.32307 -4.00734,1.74842 -5.22064,2.96171 -0.0487,0.0487 -0.50979,0.27495 -0.90357,0.35139 -0.054,0.40872 0.0686,0.78032 0.55218,1.05417 2.07748,1.17657 9.89151,-4.12832 10.99347,-6.07402 0.22126,-0.39068 0.83291,-0.56309 1.05417,-0.95377 1.66451,-2.93899 5.1583,-4.2202 6.77679,-7.07798 1.99175,-3.51677 4.2607,-6.9619 6.17441,-10.34089 1.13017,-1.99552 1.43762,-4.4936 2.56012,-6.4756 1.35652,-2.39517 2.04728,-5.2106 2.20874,-8.33295 0.12385,-2.39606 0.18897,-4.13201 -0.0501,-5.77282 -0.008,-0.0112 0.008,-0.039 0,-0.0501 -0.56007,-0.78785 -1.13349,-1.58526 -1.70675,-2.15853 -0.44284,-0.44283 -1.47856,-0.82612 -2.25893,-1.10437 -0.15309,0.12738 -0.2818,0.24086 -0.55218,0.40159 l 0.30119,-0.50199 c -0.19781,-0.0731 -0.56802,-0.21663 -0.60238,-0.25099 -0.0835,-0.0835 -0.22486,-0.074 -0.40159,-0.0501 z"
       id="path5429"
       inkscape:export-filename="/home/substack/media/avatars/substack_vector_robot.png"
       inkscape:export-xdpi="80.470001"
       inkscape:export-ydpi="80.470001" />
    <path
       style="fill:#ff0000;fill-opacity:1;stroke:#ffffff;stroke-width:1.60635114px;stroke-linecap:butt;stroke-linejoin:miter;stroke-opacity:0"
       d="m 418.00721,580.28515 c 2.94465,-2.80152 6.99996,-3.78726 9.8389,-6.6262 3.06855,-3.06853 6.25674,-6.25674 9.43731,-9.43731 1.65022,-1.65022 3.57378,-3.17218 5.22064,-4.81905 0.69692,-0.69692 1.11732,-1.7197 1.80715,-2.40953 1.85524,-1.85522 2.83114,-3.5239 5.01985,-4.61826 1.92632,-0.96315 3.42647,2.18279 2.81111,3.4135 -0.43853,0.87708 -0.82459,1.64919 -1.20476,2.40952 -0.35687,0.71374 -8.13733,7.68295 -9.23652,8.23255 -1.4199,0.70996 -2.09417,3.05502 -3.61429,3.81509 -2.33101,1.1655 -4.63066,4.02207 -7.02779,5.22064 -1.4613,0.73065 -2.9554,1.67849 -4.41746,2.40952 -0.51473,0.25736 -2.71604,0.70811 -3.01191,1.00397 -1.16186,1.16186 -4.01011,2.37284 -5.62223,1.40556 z"
       id="path5431"
       inkscape:connector-curvature="0"
       inkscape:export-filename="/home/substack/media/avatars/substack_vector_robot.png"
       inkscape:export-xdpi="80.470001"
       inkscape:export-ydpi="80.470001" />
    <path
       inkscape:connector-curvature="0"
       style="fill:#ff0000;fill-opacity:1;stroke:#ffffff;stroke-width:1.60635114px;stroke-linecap:butt;stroke-linejoin:miter;stroke-opacity:0"
       d="m 453.85605,567.46502 c -0.12096,-0.006 -0.19975,0.006 -0.30119,0.0501 -0.7991,0.33913 -2.38357,0.56156 -3.11231,1.20476 -2.2011,1.94269 -4.63074,3.72815 -6.77679,5.62223 -0.79206,0.69909 -3.0729,1.89521 -4.16647,2.35933 -0.7129,0.30256 -1.47547,1.12459 -1.90755,1.50595 -0.39048,0.34465 -1.36719,0.44456 -1.85734,0.65258 -2.79695,1.18703 -5.23884,2.95982 -8.08195,4.16648 -1.12837,0.47888 -8.04169,2.22804 -9.28672,2.56012 l -0.15052,-0.0501 c -0.0774,0.0774 -0.12015,0.11004 -0.20079,0.15052 -0.008,0.002 -0.0943,-0.002 -0.1004,0 0.11245,-0.0532 0.20653,-0.1269 0.30119,-0.15052 0.13799,-0.13798 -0.59957,-0.089 -0.55218,0.1004 0.0113,0.0474 0.0598,0.1012 0.1004,0.1004 -0.005,0.002 -0.1502,0.0498 -0.15052,0.0501 -0.18094,0.15968 -0.68509,0.11245 -0.65258,0.35139 0.003,0.0178 0.0451,0.0315 0.0501,0.0501 -0.13606,0.0694 -0.25102,0.13895 -0.40159,0.2008 -0.0145,-0.0164 -0.0344,-0.0368 -0.0501,-0.0501 -0.0569,-0.0485 -0.15132,0.008 -0.2008,0.10039 -0.008,0.0145 0.006,0.0341 0,0.0501 -0.20818,0.0912 -0.42624,0.17526 -0.55218,0.30119 -0.13975,0.13992 0.26615,0.51715 0.30119,0.55219 0.0553,0.0553 0.46555,0 0.55218,0 0.12594,0 0.41079,-0.0834 0.65258,-0.15052 0.1102,-0.0305 0.18534,-0.0129 0.30119,-0.0501 3.96451,-0.39876 8.11576,-0.21433 11.84684,-1.20476 1.17362,-0.31155 2.42551,-0.94364 3.5139,-1.40556 2.70703,-1.14888 6.13835,-1.38109 9.03572,-3.0621 1.59944,-0.92798 3.17227,-1.3455 4.96965,-2.10834 1.54565,-0.65597 2.50849,-1.94168 3.96568,-2.56012 0.81508,-0.34591 2.93047,-0.66318 3.71469,-1.35536 0.42033,-0.371 0.70014,-0.77036 0.95377,-1.15457 0.16902,-1.11729 0.87159,-3.17627 0.40158,-4.11627 -0.16754,-0.33518 0.0145,-1.37237 -0.10039,-1.80715 -0.13429,-0.16966 -0.25035,-0.33063 -0.40159,-0.50198 -0.12513,-0.14184 -0.67791,0.0917 -0.80318,-0.0501 -0.0928,-0.10521 -0.49064,-0.33102 -0.85337,-0.35139 z m -36.2433,19.7782 0.90358,0.20079 c -0.15148,-0.17155 -0.52183,-0.1756 -0.90358,-0.20079 z"
       id="path5472"
       inkscape:export-filename="/home/substack/media/avatars/substack_vector_robot.png"
       inkscape:export-xdpi="80.470001"
       inkscape:export-ydpi="80.470001" />
    <path
       style="fill:#ff0000;fill-opacity:1;stroke:#ffffff;stroke-width:1.60635114px;stroke-linecap:butt;stroke-linejoin:miter;stroke-opacity:0"
       d="m 455.06081,586.11826 c 0.26773,0.067 0.87012,-0.067 0.80318,0.20079 -0.067,0.26773 -1.07913,-0.20079 -0.80318,-0.20079 0.91166,0 2.33517,0.72882 2.81112,1.20476 0.48394,0.48395 1.23758,3.3807 0.40159,4.21668 -1.19897,1.19896 -2.15043,0.67362 -3.61429,1.40555 -4.74004,2.37003 -8.31854,1.27646 -13.65399,2.61032 -1.18499,0.29625 -4.46847,-0.0748 -5.42143,0.40159 -1.47626,0.73812 -3.38589,-0.006 -5.01985,0.40159 -4.43082,1.10771 -13.2684,1.59035 -16.06351,-1.20476 -0.75728,-0.75729 6.64348,-1.91619 6.82699,-2.00794 1.13768,-0.56884 2.89352,0.15967 4.01588,-0.40159 1.9143,-0.95715 4.62179,-1.00397 6.82699,-1.00397 1.3383,0 3.64275,-0.21503 4.81905,-0.80318 1.08194,-0.54097 3.58437,0.01 4.81906,-0.40158 2.14809,-0.31445 4.33551,-0.8626 6.4254,-1.60636 0.945,-0.3363 2.99157,-1.19512 3.81508,-1.60635 0.96902,-0.4845 1.78775,-0.95992 3.01191,-1.20476 z"
       id="path5487"
       inkscape:connector-curvature="0"
       sodipodi:nodetypes="ccsssssccsscsscscc"
       inkscape:export-filename="/home/substack/media/avatars/substack_vector_robot.png"
       inkscape:export-xdpi="80.470001"
       inkscape:export-ydpi="80.470001" />
    <path
       style="fill:#ff0000;fill-opacity:1;stroke:#ffffff;stroke-width:1.60635114px;stroke-linecap:butt;stroke-linejoin:miter;stroke-opacity:0"
       d="m 413.89807,604.99289 c 4.12106,-1.30142 8.54574,-1.40556 13.0516,-1.40556 3.7369,0 7.2671,-0.2008 11.04366,-0.2008 2.40442,0 4.56085,-0.40158 7.02779,-0.40158 0.64985,0 9.8993,-1.03417 10.24049,-1.20477 0.25488,-0.12738 1.41619,-0.59174 1.60635,-0.40158 0.12465,0.12465 0.40159,1.49692 0.40159,1.60635 0,2.00355 -2.21474,2.01394 -3.21271,3.01191 -0.20079,0.20079 -1.00397,-0.2008 -1.20476,0 -0.99158,0.99158 -8.25754,1.00396 -10.44128,1.00396 -4.53152,0 -8.95003,0.40159 -13.45319,0.40159 -1.24684,0 -3.24175,0.3919 -4.41747,0 -0.64439,-0.2148 -1.03158,-0.40159 -1.80714,-0.40159 -0.5009,0 -5.1664,0.0543 -5.22064,0 -0.51023,-0.51022 -2.13709,-0.12915 -2.61032,-0.60238 -0.0198,-0.0198 -1.20477,-0.38102 -1.20477,-0.40158 0,-0.34129 0.48477,-0.81467 0.2008,-1.00397 -0.29631,0.15549 -0.53545,0.40158 -0.80318,0.60238"
       id="path5531"
       inkscape:connector-curvature="0"
       inkscape:export-filename="/home/substack/media/avatars/substack_vector_robot.png"
       inkscape:export-xdpi="80.470001"
       inkscape:export-ydpi="80.470001" />
  </g>
</svg>
